<svg width="65.000000" height="53.000000" viewBox="0 0 65 53" fill="none" xmlns="http://www.w3.org/2000/svg" xmlns:xlink="http://www.w3.org/1999/xlink">
	<desc>
			Created with Pixso.
	</desc>
	<defs/>
	<path id="Vector" d="M61.21 -0.57L2.78 -0.57C1.79 -0.57 0.85 -0.17 0.15 0.52C-0.55 1.22 -0.94 2.17 -0.94 3.15L-0.94 40.34C-0.94 41.32 -0.55 42.27 0.15 42.97C0.85 43.66 1.79 44.06 2.78 44.06L24.05 44.06L22.78 47.25L17.12 47.25C16.84 47.25 16.57 47.36 16.37 47.56C16.17 47.76 16.06 48.03 16.06 48.31L16.06 50.43L9.68 50.43C9.4 50.43 9.13 50.54 8.93 50.74C8.73 50.94 8.62 51.21 8.62 51.5C8.62 51.78 8.73 52.05 8.93 52.25C9.13 52.45 9.4 52.56 9.68 52.56L54.31 52.56C54.59 52.56 54.86 52.45 55.06 52.25C55.26 52.05 55.37 51.78 55.37 51.5C55.37 51.21 55.26 50.94 55.06 50.74C54.86 50.54 54.59 50.43 54.31 50.43L47.93 50.43L47.93 48.31C47.93 48.03 47.82 47.76 47.62 47.56C47.42 47.36 47.15 47.25 46.87 47.25L41.21 47.25L39.94 44.06L61.21 44.06C62.2 44.06 63.14 43.66 63.84 42.97C64.54 42.27 64.93 41.32 64.93 40.34L64.93 3.15C64.93 2.17 64.54 1.22 63.84 0.52C63.14 -0.17 62.2 -0.57 61.21 -0.57ZM45.81 49.37L45.81 50.43L18.18 50.43L18.18 49.37L45.81 49.37ZM25.06 47.25L26.34 44.06L37.65 44.06L38.93 47.25L25.06 47.25ZM62.81 40.34C62.81 40.76 62.64 41.17 62.34 41.47C62.04 41.76 61.64 41.93 61.21 41.93L2.78 41.93C2.35 41.93 1.95 41.76 1.65 41.47C1.35 41.17 1.18 40.76 1.18 40.34L1.18 37.68L62.81 37.68L62.81 40.34ZM62.81 35.56L1.18 35.56L1.18 3.15C1.18 2.73 1.35 2.32 1.65 2.02C1.95 1.73 2.35 1.56 2.78 1.56L61.21 1.56C61.64 1.56 62.04 1.73 62.34 2.02C62.64 2.32 62.81 2.73 62.81 3.15L62.81 35.56Z" fill="#2B2B2B" fill-opacity="1.000000" fill-rule="nonzero"/>
	<path id="Vector" d="M27.16 26.88C27.28 26.96 27.41 27.01 27.55 27.04C27.68 27.06 27.82 27.06 27.96 27.04C28.1 27.01 28.23 26.95 28.34 26.87C28.46 26.79 28.56 26.69 28.63 26.58L37 13.83C37.15 13.59 37.21 13.3 37.15 13.03C37.1 12.75 36.93 12.51 36.7 12.36C36.46 12.2 36.17 12.15 35.9 12.2C35.62 12.26 35.38 12.43 35.22 12.66L26.86 25.41C26.78 25.53 26.73 25.66 26.7 25.8C26.67 25.93 26.68 26.07 26.7 26.21C26.73 26.35 26.79 26.48 26.87 26.59C26.94 26.71 27.05 26.81 27.16 26.88Z" fill="#2B2B2B" fill-opacity="1.000000" fill-rule="nonzero"/>
	<path id="Vector" d="M38.75 26.81C38.97 26.99 39.25 27.08 39.53 27.05C39.81 27.03 40.07 26.89 40.25 26.67L45.56 20.3C45.72 20.11 45.81 19.87 45.81 19.62C45.81 19.37 45.72 19.13 45.56 18.94L40.25 12.56C40.16 12.46 40.05 12.37 39.93 12.3C39.8 12.24 39.67 12.2 39.53 12.18C39.39 12.17 39.25 12.18 39.11 12.23C38.98 12.27 38.86 12.33 38.75 12.42C38.64 12.51 38.55 12.62 38.49 12.75C38.42 12.87 38.38 13.01 38.37 13.15C38.36 13.29 38.37 13.43 38.42 13.56C38.46 13.69 38.53 13.82 38.62 13.92L43.36 19.62L38.62 25.31C38.44 25.53 38.35 25.81 38.37 26.09C38.4 26.37 38.54 26.63 38.75 26.81Z" fill="#2B2B2B" fill-opacity="1.000000" fill-rule="nonzero"/>
	<path id="Vector" d="M23.74 26.67C23.83 26.78 23.94 26.87 24.06 26.94C24.19 27 24.32 27.04 24.46 27.06C24.6 27.07 24.74 27.06 24.88 27.01C25.01 26.97 25.13 26.91 25.24 26.82C25.35 26.73 25.44 26.62 25.5 26.49C25.57 26.37 25.61 26.23 25.62 26.09C25.63 25.95 25.62 25.81 25.57 25.68C25.53 25.55 25.46 25.42 25.37 25.31L20.63 19.62L25.37 13.92C25.46 13.82 25.53 13.69 25.57 13.56C25.62 13.43 25.63 13.29 25.62 13.15C25.61 13.01 25.57 12.87 25.5 12.75C25.44 12.62 25.35 12.51 25.24 12.42C25.13 12.33 25.01 12.27 24.88 12.23C24.74 12.18 24.6 12.17 24.46 12.18C24.32 12.2 24.19 12.24 24.06 12.3C23.94 12.37 23.83 12.46 23.74 12.56L18.43 18.94C18.27 19.13 18.18 19.37 18.18 19.62C18.18 19.87 18.27 20.11 18.43 20.3L23.74 26.67Z" fill="#2B2B2B" fill-opacity="1.000000" fill-rule="nonzero"/>
</svg>
